<?xml version="1.0" encoding="UTF-8"?>
<!DOCTYPE svg PUBLIC "-//W3C//DTD SVG 1.1//EN" "http://www.w3.org/Graphics/SVG/1.1/DTD/svg11.dtd">
<svg version="1.2" width="119.38mm" height="119.38mm" viewBox="0 0 11938 11938" preserveAspectRatio="xMidYMid" fill-rule="evenodd" stroke-width="28.222" stroke-linejoin="round" xmlns="http://www.w3.org/2000/svg" xmlns:ooo="http://xml.openoffice.org/svg/export" xmlns:xlink="http://www.w3.org/1999/xlink" xmlns:presentation="http://sun.com/xmlns/staroffice/presentation" xmlns:smil="http://www.w3.org/2001/SMIL20/" xmlns:anim="urn:oasis:names:tc:opendocument:xmlns:animation:1.0" xml:space="preserve">
 <defs class="ClipPathGroup">
  <clipPath id="presentation_clip_path" clipPathUnits="userSpaceOnUse">
   <rect x="0" y="0" width="11938" height="11938"/>
  </clipPath>
  <clipPath id="presentation_clip_path_shrink" clipPathUnits="userSpaceOnUse">
   <rect x="11" y="11" width="11915" height="11915"/>
  </clipPath>
 </defs>
 <defs class="TextShapeIndex">
  <g ooo:slide="id1" ooo:id-list="id3 id4 id5 id6 id7 id8 id9 id10 id11 id12 id13"/>
 </defs>
 <defs class="EmbeddedBulletChars">
  <g id="bullet-char-template-57356" transform="scale(0.00048828125,-0.00048828125)">
   <path d="M 580,1141 L 1163,571 580,0 -4,571 580,1141 Z"/>
  </g>
  <g id="bullet-char-template-57354" transform="scale(0.00048828125,-0.00048828125)">
   <path d="M 8,1128 L 1137,1128 1137,0 8,0 8,1128 Z"/>
  </g>
  <g id="bullet-char-template-10146" transform="scale(0.00048828125,-0.00048828125)">
   <path d="M 174,0 L 602,739 174,1481 1456,739 174,0 Z M 1358,739 L 309,1346 659,739 1358,739 Z"/>
  </g>
  <g id="bullet-char-template-10132" transform="scale(0.00048828125,-0.00048828125)">
   <path d="M 2015,739 L 1276,0 717,0 1260,543 174,543 174,936 1260,936 717,1481 1274,1481 2015,739 Z"/>
  </g>
  <g id="bullet-char-template-10007" transform="scale(0.00048828125,-0.00048828125)">
   <path d="M 0,-2 C -7,14 -16,27 -25,37 L 356,567 C 262,823 215,952 215,954 215,979 228,992 255,992 264,992 276,990 289,987 310,991 331,999 354,1012 L 381,999 492,748 772,1049 836,1024 860,1049 C 881,1039 901,1025 922,1006 886,937 835,863 770,784 769,783 710,716 594,584 L 774,223 C 774,196 753,168 711,139 L 727,119 C 717,90 699,76 672,76 641,76 570,178 457,381 L 164,-76 C 142,-110 111,-127 72,-127 30,-127 9,-110 8,-76 1,-67 -2,-52 -2,-32 -2,-23 -1,-13 0,-2 Z"/>
  </g>
  <g id="bullet-char-template-10004" transform="scale(0.00048828125,-0.00048828125)">
   <path d="M 285,-33 C 182,-33 111,30 74,156 52,228 41,333 41,471 41,549 55,616 82,672 116,743 169,778 240,778 293,778 328,747 346,684 L 369,508 C 377,444 397,411 428,410 L 1163,1116 C 1174,1127 1196,1133 1229,1133 1271,1133 1292,1118 1292,1087 L 1292,965 C 1292,929 1282,901 1262,881 L 442,47 C 390,-6 338,-33 285,-33 Z"/>
  </g>
  <g id="bullet-char-template-9679" transform="scale(0.00048828125,-0.00048828125)">
   <path d="M 813,0 C 632,0 489,54 383,161 276,268 223,411 223,592 223,773 276,916 383,1023 489,1130 632,1184 813,1184 992,1184 1136,1130 1245,1023 1353,916 1407,772 1407,592 1407,412 1353,268 1245,161 1136,54 992,0 813,0 Z"/>
  </g>
  <g id="bullet-char-template-8226" transform="scale(0.00048828125,-0.00048828125)">
   <path d="M 346,457 C 273,457 209,483 155,535 101,586 74,649 74,723 74,796 101,859 155,911 209,963 273,989 346,989 419,989 480,963 531,910 582,859 608,796 608,723 608,648 583,586 532,535 482,483 420,457 346,457 Z"/>
  </g>
  <g id="bullet-char-template-8211" transform="scale(0.00048828125,-0.00048828125)">
   <path d="M -4,459 L 1135,459 1135,606 -4,606 -4,459 Z"/>
  </g>
  <g id="bullet-char-template-61548" transform="scale(0.00048828125,-0.00048828125)">
   <path d="M 173,740 C 173,903 231,1043 346,1159 462,1274 601,1332 765,1332 928,1332 1067,1274 1183,1159 1299,1043 1357,903 1357,740 1357,577 1299,437 1183,322 1067,206 928,148 765,148 601,148 462,206 346,322 231,437 173,577 173,740 Z"/>
  </g>
 </defs>
 <g>
  <g id="id2" class="Master_Slide">
   <g id="bg-id2" class="Background"/>
   <g id="bo-id2" class="BackgroundObjects"/>
  </g>
 </g>
 <g class="SlideGroup">
  <g>
   <g id="container-id1">
    <g id="id1" class="Slide" clip-path="url(#presentation_clip_path)">
     <g class="Page">
      <g class="com.sun.star.drawing.CustomShape">
       <g id="id3">
        <rect class="BoundingBox" stroke="none" fill="none" x="18" y="18" width="11895" height="11895"/>
        <path fill="rgb(255,255,255)" stroke="none" d="M 11871,5965 C 11871,7002 11598,8020 11080,8918 10561,9816 9816,10561 8918,11080 8020,11598 7002,11871 5965,11871 4928,11871 3910,11598 3012,11080 2114,10561 1369,9816 850,8918 332,8020 59,7002 59,5965 59,4928 332,3910 850,3012 1369,2114 2114,1369 3012,850 3910,332 4928,59 5965,59 7002,59 8020,332 8918,850 9816,1369 10561,2114 11080,3012 11598,3910 11871,4928 11871,5965 L 11871,5965 Z"/>
        <path fill="none" stroke="rgb(0,0,0)" stroke-width="81" stroke-linejoin="round" d="M 11871,5965 C 11871,7002 11598,8020 11080,8918 10561,9816 9816,10561 8918,11080 8020,11598 7002,11871 5965,11871 4928,11871 3910,11598 3012,11080 2114,10561 1369,9816 850,8918 332,8020 59,7002 59,5965 59,4928 332,3910 850,3012 1369,2114 2114,1369 3012,850 3910,332 4928,59 5965,59 7002,59 8020,332 8918,850 9816,1369 10561,2114 11080,3012 11598,3910 11871,4928 11871,5965 L 11871,5965 Z"/>
       </g>
      </g>
      <g class="com.sun.star.drawing.LineShape">
       <g id="id4">
        <rect class="BoundingBox" stroke="none" fill="none" x="2515" y="3865" width="3422" height="6106"/>
        <path fill="none" stroke="rgb(0,0,0)" stroke-width="81" stroke-linejoin="round" d="M 2556,3906 L 5895,9929"/>
       </g>
      </g>
      <g class="com.sun.star.drawing.LineShape">
       <g id="id5">
        <rect class="BoundingBox" stroke="none" fill="none" x="5854" y="3715" width="3840" height="6257"/>
        <path fill="none" stroke="rgb(0,0,0)" stroke-width="81" stroke-linejoin="round" d="M 9652,3756 L 5895,9930"/>
       </g>
      </g>
      <g class="com.sun.star.drawing.LineShape">
       <g id="id6">
        <rect class="BoundingBox" stroke="none" fill="none" x="2515" y="3715" width="7180" height="233"/>
        <path fill="none" stroke="rgb(0,0,0)" stroke-width="81" stroke-linejoin="round" d="M 9653,3756 L 2556,3906"/>
       </g>
      </g>
      <g class="com.sun.star.drawing.LineShape">
       <g id="id7">
        <rect class="BoundingBox" stroke="none" fill="none" x="5989" y="3715" width="3706" height="2322"/>
        <path fill="none" stroke="rgb(0,0,0)" stroke-width="81" stroke-linejoin="round" d="M 9653,3756 L 6030,5995"/>
       </g>
      </g>
      <g class="com.sun.star.drawing.LineShape">
       <g id="id8">
        <rect class="BoundingBox" stroke="none" fill="none" x="2515" y="3865" width="3557" height="2173"/>
        <path fill="none" stroke="rgb(0,0,0)" stroke-width="81" stroke-linejoin="round" d="M 2556,3906 L 6030,5996"/>
       </g>
      </g>
      <g class="com.sun.star.drawing.LineShape">
       <g id="id9">
        <rect class="BoundingBox" stroke="none" fill="none" x="5854" y="5955" width="218" height="4016"/>
        <path fill="none" stroke="rgb(0,0,0)" stroke-width="81" stroke-linejoin="round" d="M 5895,9929 L 6030,5996"/>
       </g>
      </g>
      <g class="com.sun.star.drawing.CustomShape">
       <g id="id10">
        <rect class="BoundingBox" stroke="none" fill="none" x="8136" y="2779" width="2444" height="2441"/>
        <path fill="rgb(0,4,129)" stroke="none" d="M 10537,4040 C 10530,4246 10469,4448 10359,4623 10249,4799 10095,4942 9912,5040 9729,5137 9524,5184 9317,5177 9109,5170 8908,5109 8732,4999 8556,4890 8413,4736 8315,4553 8218,4370 8171,4165 8178,3958 8185,3752 8246,3550 8356,3375 8466,3199 8620,3056 8803,2958 8986,2861 9191,2814 9398,2821 9606,2828 9807,2889 9983,2999 10159,3108 10302,3262 10400,3445 10497,3628 10544,3833 10537,4040 L 10537,4040 Z"/>
        <path fill="none" stroke="rgb(0,0,0)" stroke-width="81" stroke-linejoin="round" d="M 10537,4040 C 10530,4246 10469,4448 10359,4623 10249,4799 10095,4942 9912,5040 9729,5137 9524,5184 9317,5177 9109,5170 8908,5109 8732,4999 8556,4890 8413,4736 8315,4553 8218,4370 8171,4165 8178,3958 8185,3752 8246,3550 8356,3375 8466,3199 8620,3056 8803,2958 8986,2861 9191,2814 9398,2821 9606,2828 9807,2889 9983,2999 10159,3108 10302,3262 10400,3445 10497,3628 10544,3833 10537,4040 L 10537,4040 Z"/>
       </g>
      </g>
      <g class="com.sun.star.drawing.CustomShape">
       <g id="id11">
        <rect class="BoundingBox" stroke="none" fill="none" x="1401" y="2549" width="2443" height="2444"/>
        <path fill="rgb(0,4,129)" stroke="none" d="M 3801,3811 C 3794,4018 3733,4220 3623,4396 3514,4571 3360,4715 3177,4813 2994,4910 2789,4957 2582,4950 2375,4943 2173,4882 1998,4772 1822,4662 1678,4508 1581,4325 1483,4142 1436,3937 1443,3730 1450,3523 1511,3321 1621,3145 1730,2970 1884,2826 2067,2728 2250,2631 2455,2584 2662,2591 2869,2598 3071,2659 3246,2769 3422,2879 3566,3033 3663,3216 3761,3399 3808,3604 3801,3811 L 3801,3811 Z"/>
        <path fill="none" stroke="rgb(0,0,0)" stroke-width="81" stroke-linejoin="round" d="M 3801,3811 C 3794,4018 3733,4220 3623,4396 3514,4571 3360,4715 3177,4813 2994,4910 2789,4957 2582,4950 2375,4943 2173,4882 1998,4772 1822,4662 1678,4508 1581,4325 1483,4142 1436,3937 1443,3730 1450,3523 1511,3321 1621,3145 1730,2970 1884,2826 2067,2728 2250,2631 2455,2584 2662,2591 2869,2598 3071,2659 3246,2769 3422,2879 3566,3033 3663,3216 3761,3399 3808,3604 3801,3811 L 3801,3811 Z"/>
       </g>
      </g>
      <g class="com.sun.star.drawing.CustomShape">
       <g id="id12">
        <rect class="BoundingBox" stroke="none" fill="none" x="4600" y="8567" width="2444" height="2444"/>
        <path fill="rgb(0,4,129)" stroke="none" d="M 7001,9829 C 6994,10036 6933,10238 6823,10414 6713,10589 6559,10733 6376,10831 6193,10928 5988,10975 5780,10968 5573,10961 5372,10900 5196,10790 5020,10680 4877,10526 4779,10343 4682,10160 4634,9955 4642,9748 4649,9541 4710,9339 4820,9163 4930,8988 5084,8844 5267,8746 5450,8649 5655,8602 5862,8609 6070,8616 6271,8677 6447,8787 6623,8897 6766,9051 6864,9234 6961,9417 7008,9622 7001,9829 L 7001,9829 Z"/>
        <path fill="none" stroke="rgb(0,0,0)" stroke-width="81" stroke-linejoin="round" d="M 7001,9829 C 6994,10036 6933,10238 6823,10414 6713,10589 6559,10733 6376,10831 6193,10928 5988,10975 5780,10968 5573,10961 5372,10900 5196,10790 5020,10680 4877,10526 4779,10343 4682,10160 4634,9955 4642,9748 4649,9541 4710,9339 4820,9163 4930,8988 5084,8844 5267,8746 5450,8649 5655,8602 5862,8609 6070,8616 6271,8677 6447,8787 6623,8897 6766,9051 6864,9234 6961,9417 7008,9622 7001,9829 L 7001,9829 Z"/>
       </g>
      </g>
      <g class="com.sun.star.drawing.CustomShape">
       <g id="id13">
        <rect class="BoundingBox" stroke="none" fill="none" x="5210" y="5180" width="1633" height="1631"/>
        <path fill="rgb(255,0,0)" stroke="none" d="M 6815,6022 C 6810,6160 6769,6295 6695,6412 6622,6530 6519,6626 6397,6691 6275,6756 6137,6787 5999,6783 5860,6778 5726,6737 5608,6663 5491,6590 5395,6487 5330,6365 5264,6243 5233,6106 5237,5968 5242,5830 5283,5695 5357,5578 5430,5460 5533,5364 5655,5299 5777,5234 5915,5203 6053,5207 6192,5212 6326,5253 6444,5327 6561,5400 6657,5503 6722,5625 6788,5747 6819,5884 6815,6022 L 6815,6022 Z"/>
        <path fill="none" stroke="rgb(0,0,0)" stroke-width="53" stroke-linejoin="round" d="M 6815,6022 C 6810,6160 6769,6295 6695,6412 6622,6530 6519,6626 6397,6691 6275,6756 6137,6787 5999,6783 5860,6778 5726,6737 5608,6663 5491,6590 5395,6487 5330,6365 5264,6243 5233,6106 5237,5968 5242,5830 5283,5695 5357,5578 5430,5460 5533,5364 5655,5299 5777,5234 5915,5203 6053,5207 6192,5212 6326,5253 6444,5327 6561,5400 6657,5503 6722,5625 6788,5747 6819,5884 6815,6022 L 6815,6022 Z"/>
       </g>
      </g>
     </g>
    </g>
   </g>
  </g>
 </g>
</svg>